<?xml version="1.0" encoding="utf-8"?>
<!-- Svg Vector Icons : http://www.onlinewebfonts.com/icon -->
<!DOCTYPE svg PUBLIC "-//W3C//DTD SVG 1.1//EN" "http://www.w3.org/Graphics/SVG/1.1/DTD/svg11.dtd">
<svg version="1.1" xmlns="http://www.w3.org/2000/svg" xmlns:xlink="http://www.w3.org/1999/xlink" x="0px" y="0px" viewBox="0 0 1000 1000" enable-background="new 0 0 1000 1000" xml:space="preserve">
<metadata> Svg Vector Icons : http://www.onlinewebfonts.com/icon </metadata>
<g><g transform="translate(0.000000,511.000000) scale(0.100000,-0.100000)"><path d="M5283.5,4989.9c-354.7-35.9-679.5-137.5-900.7-281c-382.6-249.1-587.8-601.8-707.4-1221.5c-43.8-217.2-43.8-245.1-49.8-3543l-8-3323.8l-107.6,99.6c-279,255.1-629.7,306.9-976.4,143.5c-332.8-153.4-536-546-474.3-908.7c63.8-366.7,328.8-649.6,679.5-725.4c404.5-85.7,890.7,115.6,1191.6,492.2c207.2,261.1,346.7,599.8,390.6,950.5c13.9,103.6,31.9,189.3,39.9,189.3c8,0,15.9,1508.5,15.9,3353.7c0,3710.4-6,3497.2,131.5,3776.2c193.3,394.6,559.9,581.9,1082,556c374.6-17.9,595.8-97.6,799.1-287c237.1-219.2,328.8-504.2,326.8-1012.3c-2-300.9-6-334.8-73.8-593.8c-87.7-328.8-173.3-502.2-273-556c-95.7-49.8-239.1-45.8-424.5,14c-187.3,59.8-277,61.8-418.5,10c-285-107.6-386.6-388.6-239.1-661.6c125.5-229.2,324.8-265,761.2-133.5c197.3,59.8,342.7,13.9,575.9-179.3c99.6-83.7,129.5-123.6,181.4-249.1c147.4-354.7,213.2-807.1,195.3-1335.1c-13.9-386.6-49.8-619.7-135.5-876.8c-179.3-536-520.1-769.2-1008.3-689.5c-191.3,29.9-631.7,169.4-916.6,290.9c-119.6,49.8-225.2,95.6-239.1,101.6c-33.9,14-105.6-109.6-105.6-179.3c0-386.6,916.7-771.2,1652-693.5c275,27.9,466.3,81.7,689.5,191.3c350.7,171.4,587.8,398.5,755.2,725.3c183.3,356.7,257,703.4,259.1,1207.6c0,615.8-117.6,1076.1-352.7,1379c-123.5,159.4-450.3,474.3-635.7,613.7c-85.7,61.8-155.4,121.6-155.4,127.5c0,8,59.8,63.8,131.5,123.5c169.4,137.5,362.7,362.7,486.2,563.9c312.8,504.1,338.8,1094,69.7,1638c-149.4,302.9-422.5,561.9-755.2,715.4C6357.6,4979.9,5833.5,5047.6,5283.5,4989.9z"/></g></g>
</svg>