<svg width="287px" height="287px" viewBox="0 0 287 287" version="1.1" xmlns="http://www.w3.org/2000/svg" xmlns:xlink="http://www.w3.org/1999/xlink">
    <g id="Page-1" stroke="none" stroke-width="1" fill="none" fill-rule="evenodd">
        <g id="betalist-logo">
            <rect id="Rectangle-3" fill="#000000" x="0" y="0" width="287" height="287" rx="143.5"></rect>
            <path d="M176.354151,187.121811 C176.515151,168.261811 161.366151,152.809811 142.699151,152.797811 C124.553151,152.785811 108.810151,168.396811 108.694151,186.516811 C108.575151,205.191811 123.911151,220.692811 142.556151,220.742811 C161.109151,220.792811 176.194151,205.786811 176.354151,187.121811 M176.354151,96.8028108 C176.328151,77.8948108 161.100151,62.6128108 142.460151,62.7878108 C123.936151,62.9618108 108.750151,78.1688108 108.703151,96.5928108 C108.656151,115.279811 124.089151,130.736811 142.686151,130.625811 C161.127151,130.515811 176.380151,115.191811 176.354151,96.8028108 M108.553151,142.455811 C93.1281507,129.058811 85.4441507,113.223811 86.4231507,93.8258108 C87.1961507,78.5188108 93.3871507,65.4978108 104.658151,55.0798108 C126.847151,34.5698108 160.874151,35.0988108 183.043151,55.9498108 C201.402151,73.2188108 211.844151,112.326811 178.899151,142.461811 C179.800151,143.406811 180.646151,144.402811 181.602151,145.282811 C194.200151,156.891811 200.176151,171.479811 200.434151,188.382811 C200.696151,205.533811 200.369151,222.692811 200.598151,239.845811 C200.653151,244.033811 199.016151,244.788811 195.333151,244.777811 C160.524151,244.678811 125.714151,244.671811 90.9051507,244.790811 C87.2321507,244.803811 85.9811507,243.767811 86.0171507,240.005811 C86.1931507,221.519811 85.7391507,203.020811 86.2591507,184.548811 C86.6891507,169.259811 93.0771507,156.259811 104.136151,145.647811 C105.306151,144.525811 106.780151,143.721811 108.553151,142.455811" id="Fill-1" fill="#FFFFFF"></path>
        </g>
    </g>
</svg>